<svg width="760" height="760" viewBox="0 0 760 760" fill="none" xmlns="http://www.w3.org/2000/svg">
  <g stroke="#15603F" stroke-opacity="0.06" stroke-width="1.4" fill="none">
    <path d="M40 220c120-70 260-70 360 0s240 80 320 10"/>
    <path d="M10 300c130-72 280-66 380 8s250 84 350 6"/>
    <path d="M-10 384c140-74 300-60 404 16s262 86 372 0"/>
    <path d="M20 470c150-72 312-52 416 24s256 84 360-4"/>
    <path d="M0 560c160-70 326-46 430 30s250 80 350-10"/>
    <path d="M30 650c150-66 320-40 420 34s246 78 340-16"/>
    <ellipse cx="430" cy="430" rx="120" ry="86"/>
    <ellipse cx="430" cy="430" rx="70" ry="48"/>
  </g>
</svg>
